HIERARCHY
ROOT Hips
{
	OFFSET -0.001795 -0.223333 0.028219
	CHANNELS 6 Xposition Yposition Zposition Zrotation Yrotation Xrotation 
	JOINT LeftUpLeg
	{
		OFFSET 0.069520 -0.091406 -0.006815
		CHANNELS 3 Zrotation Yrotation Xrotation
		JOINT LeftLeg
		{
			OFFSET 0.034277 -0.375199 -0.004496
			CHANNELS 3 Zrotation Yrotation Xrotation
			JOINT LeftFoot
			{
				OFFSET -0.013596 -0.397961 -0.043693
				CHANNELS 3 Zrotation Yrotation Xrotation
				JOINT LeftToe
				{
					OFFSET 0.026358 -0.055791 0.119288
					CHANNELS 3 Zrotation Yrotation Xrotation
					End Site
					{
						OFFSET 0.000000 0.000000 0.000000
					}
				}
			}
		}
	}
	JOINT RightUpLeg
	{
		OFFSET -0.067670 -0.090522 -0.004320
		CHANNELS 3 Zrotation Yrotation Xrotation
		JOINT RightLeg
		{
			OFFSET -0.038290 -0.382569 -0.008850
			CHANNELS 3 Zrotation Yrotation Xrotation
			JOINT RightFoot
			{
				OFFSET 0.015774 -0.398415 -0.042312
				CHANNELS 3 Zrotation Yrotation Xrotation
				JOINT RightToe
				{
					OFFSET -0.025372 -0.048144 0.123348
					CHANNELS 3 Zrotation Yrotation Xrotation
					End Site
					{
						OFFSET 0.000000 0.000000 0.000000
					}
				}
			}
		}
	}
	JOINT Spine
	{
		OFFSET -0.002533 0.108963 -0.026696
		CHANNELS 3 Zrotation Yrotation Xrotation
		JOINT Spine1
		{
			OFFSET 0.005487 0.135180 0.001092
			CHANNELS 3 Zrotation Yrotation Xrotation
			JOINT Spine2
			{
				OFFSET 0.001457 0.052922 0.025425
				CHANNELS 3 Zrotation Yrotation Xrotation
				JOINT Neck
				{
					OFFSET -0.002778 0.213870 -0.042857
					CHANNELS 3 Zrotation Yrotation Xrotation
					JOINT Head
					{
						OFFSET 0.005152 0.064970 0.051349
						CHANNELS 3 Zrotation Yrotation Xrotation
						End Site
						{
							OFFSET 0.000000 0.000000 0.000000
						}
					}
				}
				JOINT LeftShoulder
				{
					OFFSET 0.078845 0.121749 -0.034090
					CHANNELS 3 Zrotation Yrotation Xrotation
					JOINT LeftArm
					{
						OFFSET 0.090977 0.030469 -0.008868
						CHANNELS 3 Zrotation Yrotation Xrotation
						JOINT LeftForeArm
						{
							OFFSET 0.259612 -0.012772 -0.027456
							CHANNELS 3 Zrotation Yrotation Xrotation
							JOINT LeftHand
							{
								OFFSET 0.249234 0.008986 -0.001171
								CHANNELS 3 Zrotation Yrotation Xrotation
								End Site
								{
									OFFSET 0.000000 0.000000 0.000000
								}
							}
						}
					}
				}
				JOINT RightShoulder
				{
					OFFSET -0.081759 0.118833 -0.038615
					CHANNELS 3 Zrotation Yrotation Xrotation
					JOINT RightArm
					{
						OFFSET -0.096012 0.032551 -0.009143
						CHANNELS 3 Zrotation Yrotation Xrotation
						JOINT RightForeArm
						{
							OFFSET -0.253742 -0.013329 -0.021401
							CHANNELS 3 Zrotation Yrotation Xrotation
							JOINT RightHand
							{
								OFFSET -0.255298 0.007772 -0.005559
								CHANNELS 3 Zrotation Yrotation Xrotation
								End Site
								{
									OFFSET 0.000000 0.000000 0.000000
								}
							}
						}
					}
				}
			}
		}
	}
}
MOTION
Frames: 9
Frame Time: 0.050000
-0.002194 0.936088 -0.104268 -0.407409 -6.493269 4.923331 7.736606 -0.278980 -11.584267 -1.548403 0.088187 10.611590 4.262333 10.218973 7.511736 0.000000 0.000000 0.000000 -3.406205 1.634302 -18.754300 -1.544429 1.593579 20.607849 0.741216 -0.411129 3.699574 0.000000 0.000000 0.000000 11.817742 -0.322921 0.786088 -0.822267 0.431334 4.054764 -5.767840 7.895031 10.060840 11.434142 -5.281830 -17.069322 0.000000 0.000000 0.000000 -6.580788 -30.598208 11.403297 -35.515359 -18.280879 0.586015 -38.515251 -55.059806 21.970284 0.000000 0.000000 0.000000 3.265977 21.419475 8.423327 20.012116 21.565240 0.453789 33.692185 69.427999 27.559008 0.000000 0.000000 0.000000 
-0.003582 0.935784 -0.104049 -0.390201 -5.556369 4.967642 8.051958 -0.283516 -12.381051 -1.621165 0.079191 12.009379 3.642453 9.063817 6.824669 0.000000 0.000000 0.000000 -3.160825 1.645498 -18.857332 -1.916374 1.681611 20.918817 0.374347 -1.090884 3.454241 0.000000 0.000000 0.000000 11.326123 -0.397046 1.264343 -1.009852 0.509555 3.874213 -5.771980 8.257582 9.396540 11.450933 -5.031718 -17.713938 0.000000 0.000000 0.000000 -6.580217 -31.287327 11.557583 -35.444729 -20.949400 1.370512 -36.704249 -57.160885 21.687408 0.000000 0.000000 0.000000 4.429986 22.101320 9.057566 21.313732 22.283723 0.681630 29.911590 68.938549 24.815135 0.000000 0.000000 0.000000 
-0.004676 0.935299 -0.103620 -0.424060 -4.669184 5.081063 8.230720 -0.300463 -13.112412 -1.435625 0.008283 13.047633 3.133019 8.206830 6.846407 0.000000 0.000000 0.000000 -3.169241 1.623426 -18.898975 -1.870503 1.638061 21.078660 0.130991 -1.599059 3.413682 0.000000 0.000000 0.000000 10.950876 -0.442943 1.562938 -0.904488 0.439929 3.648693 -5.864903 8.775945 8.672794 11.684517 -4.978214 -17.990912 0.000000 0.000000 0.000000 -6.594453 -32.290704 11.826002 -35.295517 -23.642284 2.158781 -33.680763 -59.815097 20.795425 0.000000 0.000000 0.000000 5.049984 22.404472 9.463244 23.263377 22.960513 1.008216 30.316118 69.121016 25.495557 0.000000 0.000000 0.000000 
-0.005940 0.934095 -0.102778 -0.477188 -3.853363 4.924975 8.430201 -0.304046 -13.305735 -1.302188 -0.054527 13.977175 2.924779 7.496074 5.097818 0.000000 0.000000 0.000000 -3.234807 1.598343 -18.986477 -1.562061 1.577754 22.001902 -0.398657 -2.500876 2.790977 0.000000 0.000000 0.000000 10.540420 -0.495150 2.019975 -0.675980 0.310243 3.318695 -5.874317 8.951193 8.416401 11.903451 -4.909484 -18.575221 0.000000 0.000000 0.000000 -6.861269 -32.463575 11.843753 -35.264009 -26.501723 2.956296 -29.871614 -61.436011 18.976687 0.000000 0.000000 0.000000 6.362596 22.849057 10.055416 25.813272 24.335221 1.547897 30.315963 68.536640 25.369881 0.000000 0.000000 0.000000 
-0.007604 0.931349 -0.101876 -0.371261 -3.468727 4.913977 8.717357 -0.289275 -13.757544 -1.629732 0.006987 14.843067 2.952550 7.476250 4.697768 0.000000 0.000000 0.000000 -3.239206 1.651043 -19.758369 -1.352997 1.594064 23.393137 -0.962275 -3.410554 1.889866 0.000000 0.000000 0.000000 10.058401 -0.518710 2.306418 -0.622751 0.279733 2.897002 -6.074733 9.399452 8.167111 11.924688 -4.782975 -18.809309 0.000000 0.000000 0.000000 -7.330926 -32.714145 11.912389 -35.681237 -28.944774 3.719231 -21.833157 -61.093344 13.862345 0.000000 0.000000 0.000000 7.023727 23.228884 10.500652 30.651710 26.156089 2.637514 28.988732 68.622386 24.747778 0.000000 0.000000 0.000000 
-0.009694 0.926706 -0.101469 -0.249943 -2.489979 4.426616 9.038654 -0.281600 -14.128827 -2.083940 0.073310 16.929005 3.141312 7.354096 2.566243 0.000000 0.000000 0.000000 -3.238516 1.647776 -20.163102 -0.770987 1.498533 25.725708 -1.747268 -4.538963 0.144330 0.000000 0.000000 0.000000 9.556156 -0.587928 3.083265 -0.190430 0.056930 2.362280 -6.354135 9.715292 8.067859 12.764579 -5.025020 -19.562049 0.000000 0.000000 0.000000 -7.429703 -32.538521 11.698276 -35.411363 -30.975930 4.242060 -12.005643 -58.002409 7.423217 0.000000 0.000000 0.000000 7.254623 22.791562 10.489804 35.648117 28.040374 4.022231 27.691773 68.431715 24.074844 0.000000 0.000000 0.000000 
-0.012064 0.921476 -0.101481 -0.366878 -2.068113 4.068213 9.541986 -0.235940 -15.270535 -2.669587 0.207756 19.664682 3.251567 7.233174 1.241320 0.000000 0.000000 0.000000 -3.175792 1.723805 -21.198480 -0.056387 1.380395 28.502578 -2.296462 -5.237916 -1.508677 0.000000 0.000000 0.000000 9.156954 -0.601936 3.415247 0.294910 -0.170883 1.492922 -6.610739 10.604309 8.835399 13.129701 -4.975201 -20.313933 0.000000 0.000000 0.000000 -6.496656 -31.258265 10.845444 -34.982030 -33.208067 4.648137 -1.938347 -49.418176 1.515616 0.000000 0.000000 0.000000 7.902883 21.434933 10.202591 40.002207 28.595077 4.953061 22.400760 67.078722 20.229698 0.000000 0.000000 0.000000 
-0.014371 0.918415 -0.101543 -0.195978 -2.383479 4.004130 9.390239 -0.243509 -16.676985 -3.276335 0.421262 22.177526 3.500168 7.452702 0.161886 0.000000 0.000000 0.000000 -2.956877 1.796241 -21.542222 -0.042790 1.446047 29.206895 -2.689066 -5.761287 -2.708741 0.000000 0.000000 0.000000 8.567906 -0.592501 3.612834 0.283534 -0.154779 1.089893 -6.789377 11.030784 8.791104 13.946281 -5.644549 -19.509102 0.000000 0.000000 0.000000 -6.241430 -30.054804 10.275240 -31.559485 -31.507549 3.604067 3.667412 -38.056610 -0.648194 0.000000 0.000000 0.000000 7.074744 19.014880 8.918199 41.275481 26.882854 4.643465 15.283196 65.733466 15.161138 0.000000 0.000000 0.000000 
-0.016170 0.919906 -0.100352 0.136543 -2.094476 4.056997 9.268435 -0.275742 -17.471792 -3.686699 0.545368 23.448564 3.405728 7.360685 0.547589 0.000000 0.000000 0.000000 -2.973401 1.792487 -21.659534 -0.437660 1.581934 29.464487 -2.723090 -5.977975 -2.435695 0.000000 0.000000 0.000000 7.674796 -0.460073 2.777634 0.530615 -0.252439 0.145366 -6.534055 11.286968 10.097313 14.123723 -5.564674 -20.288779 0.000000 0.000000 0.000000 -4.022474 -26.717122 8.754488 -29.723647 -31.417143 3.074228 6.610075 -25.352486 -0.987257 0.000000 0.000000 0.000000 5.466879 16.089629 7.282584 40.250041 23.581989 3.278991 5.174883 61.631897 8.050755 0.000000 0.000000 0.000000 
